<svg xmlns="http://www.w3.org/2000/svg" width="126.98mm" height="35.472mm" viewBox="0 0 359.942 100.55"><defs><style>.cls-1{fill:#fff;}.cls-2{fill:none;}</style></defs><title>Asus-stacked</title><g id="Ebene_2" data-name="Ebene 2"><g id="圖層_2" data-name="圖層 2"><path class="cls-1" d="M54.9,67.982a30.568,30.568,0,0,0,3.929,2.276C72.7,76.56,93,80.4,96.946,79.075c10.679-3.581,22.634-27.025,26.395-37.837,0,0-11.221,4.625-22.6,10.148-9.51,4.614-15.282,7.574-18,8.992-.3.125-.478.2-.556.23l.485-.193c-1.226.64-1.807.955-1.807.955l32.442-10.177-5.959,1.9S100.243,70.374,91,72.3s-25.658-4.8-25.68-4.806c1.355-1.079,18.445-14.352,58.917-31.448.053-.015.108-.034.161-.049,1.334-.565,3.154-3.824,3.208-5.676,0,0-14.3,1.344-26.951,8.062C83.625,46.8,54.9,67.982,54.9,67.982Zm39.795,6.375h0a8.112,8.112,0,0,1-.81.272C94.152,74.554,94.422,74.461,94.692,74.357Zm21.74-35.732q3.734-1.385,7.441-2.468Q120.16,37.264,116.432,38.625Z"/><path class="cls-1" d="M82.186,60.608l-.048.02Z"/><path class="cls-1" d="M19.2,46.849l.021.056a.179.179,0,0,1-.021-.017.463.463,0,0,1,.028.042c.31.851,3.189,8.694,6.138,12.626,2.894,3.868,14.588,6.88,16.235,7.289l.2.089-.083-.06.083.02C34.372,61.5,19.2,46.849,19.2,46.849Z"/><path class="cls-1" d="M51.441,69.178c-1.056-2.091.253-4.856,8.886-11.468,7.8-5.979,35.905-30.434,62.786-37,0,0-14.094-2.379-34.232,4.177C81.7,27.222,71.128,37.626,51.786,57.231c-2.632,1.518-12.074-4.093-17.5-6.794,0,0,9.023,14.767,12.178,19.191,4.9,6.882,13.718,10.865,13.718,10.865s-.027-.027-.076-.082C59.362,79.593,53.346,72.929,51.441,69.178Z"/><polygon class="cls-1" points="224.772 30.93 219.853 30.93 219.853 45.679 210.934 45.679 210.934 30.926 205.994 30.926 205.994 48.223 224.772 48.229 224.772 30.93"/><polygon class="cls-1" points="264.93 45.615 252.87 45.615 252.87 30.959 247.915 30.959 247.915 48.166 262.679 48.166 264.93 45.615"/><rect class="cls-1" x="266.906" y="30.959" width="4.97" height="17.264"/><polygon class="cls-1" points="327.257 33.489 338.299 33.486 340.566 30.959 322.3 30.959 322.3 48.159 327.257 48.159 327.257 39.72 337.911 39.72 339.979 37.172 327.257 37.166 327.257 33.489"/><path class="cls-1" d="M190.511,42.627h13.367V32.267c-.069-.68-.458-1.337-1.2-1.337l-17.164,0V48.105h5Zm-.037-9.158H198.5c.12,0,.44,0,.44.755v5.845h-8.466Z"/><path class="cls-1" d="M245.236,37.527H243.78V32.512c0-.967-.472-1.589-1.211-1.589l-15.564,0V48.11l18.223-.005Zm-4.97,8.028h-8.3v-5.5h8.3Zm0-8.051h-8.3V33.473h7.857c.43,0,.439.669.439.744Z"/><polygon class="cls-1" points="169.631 45.564 169.631 40.844 182.187 40.844 182.187 38.125 169.631 38.125 169.631 33.469 180.771 33.469 183.267 30.926 164.686 30.926 164.686 48.11 183.269 48.11 180.771 45.564 169.631 45.564"/><polygon class="cls-1" points="279.579 33.493 290.715 33.493 293.212 30.942 274.58 30.942 274.583 48.11 290.745 48.115 293.234 45.564 279.579 45.564 279.579 33.493"/><polygon class="cls-1" points="266.574 60.366 268.796 57.796 249.793 57.797 249.793 67.193 263.499 67.193 263.496 72.355 249.175 72.355 252.257 75.022 268.493 75.022 268.493 64.613 254.766 64.613 254.766 60.366 266.574 60.366"/><path class="cls-1" d="M180.853,57.81,163.182,57.8V75.022h5.029V67.694h8.874v7.328h4.97l0-15.625C182.06,58.634,181.6,57.81,180.853,57.81Zm-3.891,7.319h-8.678V60.372h8.231c.413,0,.447.575.447.751Z"/><polygon class="cls-1" points="212.402 72.514 212.402 67.77 225.028 67.77 225.028 65.034 212.402 65.034 212.402 60.354 223.601 60.354 226.109 57.796 207.429 57.796 207.429 75.075 226.112 75.075 223.601 72.514 212.402 72.514"/><polygon class="cls-1" points="158.059 60.483 160.682 57.797 141.044 57.789 141.043 75.022 159.978 75.022 159.978 65.63 155.007 65.63 155.007 72.447 146.071 72.447 146.071 60.483 158.059 60.483"/><polygon class="cls-1" points="184.772 57.796 184.772 75.101 189.773 75.101 189.773 65.21 194.724 68.69 199.674 65.21 199.674 75.101 204.67 75.101 204.67 57.796 194.724 64.718 184.772 57.796"/><path class="cls-1" d="M246.984,67.643v-8.26c0-.758-.457-1.587-1.2-1.587H227.867V75.012h5.042V60.342l8.745.006c.408,0,.443.573.443.751v3.367l-8.2,0,8.971,10.555h5.885L242.5,67.659Z"/><path class="cls-1" d="M161.711,43.081V32.527c0-.752.037-1.607-.992-1.607H141.043V42.964l5.2,5.87V33.489h9.484c.618,0,.763.254.763.883v5.5H148.1l13.651,14.834V48.89l-5.18-5.809Z"/><path class="cls-1" d="M318.2,30.942H301.412V43.394l4.049,4.769h13.92V32.289A1.27,1.27,0,0,0,318.2,30.942Zm-3.787,14.645h-5.272L306.384,42.3V33.517h8.025Z"/><rect class="cls-2" width="359.942" height="100.55"/></g></g></svg>