<svg width="300" height="100" viewBox="0 0 300 100" xmlns="http://www.w3.org/2000/svg" xmlns:xlink="http://www.w3.org/1999/xlink"><title>official-partner-gamefuel</title><desc>Created with Sketch.</desc><defs><path id="a" d="M.265.054h1.218v1.232h-1.218z"/></defs><g fill="none"><path d="M92.557 29.136l-34.832 15.953 8.99-14.268 31.037-14.268-5.196 12.583zm-33.192 3.038c-.526.233-1.054.445-1.702.271l-.033-.009c-.17-.055-.322-.147-.449-.257-.239.353-.523.681-.847.978-.705.65-1.581 1.179-2.634 1.672l-10.122 4.751c2.093-3.539 5.371-12.832 5.371-12.832l-6.685 2.793c2.605-2.745 10.014-13.437 10.014-13.437l7.725-3.625.509-1.601 4.747-2.39-.571 1.802 8.977-4.149s-1.04 2.509-2.669 8.464l22.111-10.272s-3.508 3.279-14.185 18.69l-19.556 9.15zm37.716-17.082l-15.39 7.075c3.102-4.301 9.964-13.666 14.728-19.086l2.709-3.082-25.712 11.934c1.421-4.765 2.438-6.617 2.448-6.636l1.306-2.322-9.869 4.541.623-1.963-8.87 4.465-.5 1.575-7.482 3.51-.109.163c-.172.147-.548.664-1.866 2.491-2.286 3.17-6.543 9.072-10.463 13.523l-2.634 2.866 9.989-4.114c-1.178 2.895-3.649 8.806-5.092 11.13l-1.538 2.477 14.947-7.015c1.299-.608 2.268-1.229 3.051-1.952l.249-.24c.315.041.638.037.959-.01l.254-.047c.455-.1.819-.259 1.111-.386l.05-.023 4.046-1.893-7.662 12.159-2.877 4.567 4.908-2.248 34.832-15.953.575-.263.241-.585 5.195-12.583 1.563-3.786-3.721 1.711z" fill="#FEFEFE"/><path d="M61.268 11.392l2.389-1.202-.544 1.718 1.878-.879-.491 1.55-1.878.877-1.325 4.176c-.16.506-.154.618.267.422l.829-.387c.459-.214.81-.565.946-.701l-.738 1.923-2.959 1.383c-.749.35-1.238.148-.613-1.821l1.234-3.891-.732.343.491-1.549.732-.344.513-1.617z" fill="#FEFEFE"/><path d="M68.187 9.523l-.191.793.02-.01c.238-.455.521-.947.871-1.109l1.908-.893c1.11-.519 1.217.378.656 2.147l-1.022 3.217c-.346 1.094-.329 1.358-.317 1.697l-2.878 1.346c.268-.47.49-.847.837-1.941l1.234-3.891c.155-.488.108-.61-.183-.474l-.858.4c-.29.135-.443.35-.597.839l-1.235 3.89c-.348 1.095-.329 1.358-.318 1.698l-2.879 1.346c.268-.47.49-.845.837-1.94l1.358-4.278c.347-1.095.329-1.359.317-1.696l2.439-1.142z" fill="#FEFEFE"/><path d="M48.815 23.921c-.276.402-.643.973-.793 1.26-.129.245-.243.486-.277.675l-2.23 1.042c.743-.821 1.524-1.888 1.935-2.496l5.263-7.609 2.438-1.141-1.939 6.04.021-.01 3.778-6.9 2.469-1.153-1.891 5.932c-.391 1.216-.408 1.396-.452 1.904l-2.779 1.298c.135-.25.237-.426.359-.696.186-.417.278-.734.367-1.019l1.066-3.424-.02.009-3.17 5.786-2.709 1.265 1.611-5.055-.02.009-3.026 4.284z" fill="#FEFEFE"/><path d="M50.875 32.842l1.888-.883c.594-.277.76-.547 1.127-1.633l1.341-3.965c.367-1.087.355-1.275-.24-.996l-1.579.706-2.537 6.771zm-1.141-4.971c.614-1.506.772-2.202.644-2.647l6.963-3.211c2.021-.944 2.289.038 1.177 3.329l-1.565 5.144c-.461 1.522-1.631 2.544-3.652 3.487l-7.385 3.452c.392-.715.651-1.353 1.237-2.923l2.583-6.632z" fill="#FEFEFE"/><path d="M65.1 22.568l.507-1.602c.214-.675.183-.895-.203-.715l-1.441.674c-.386.181-.592.511-.807 1.187l-.507 1.602 2.451-1.146zm-3.183 3.448l-.349 1.102c-.256.844-.144 1.089.42.827l3.373-1.576c.668-.314 1.048-.554 1.748-1.244l-1.156 2.927-6.983 3.265c-1.574.737-1.67-.157-.892-2.61l1.477-4.656c.778-2.452 1.573-3.761 3.147-4.498l5.332-2.492c1.575-.737 1.672.156.892 2.61l-1.142 3.604-5.868 2.742z" fill="#FEFEFE"/><path d="M84.116 11.659c.423-.604.985-1.462 1.214-1.889.197-.369.37-.728.419-1.007l3.485-1.628c-1.148 1.238-2.35 2.846-2.981 3.758l-7.833 11.316-4.363 2.039 2.889-8.983-.035.016-6.15 10.507-3.67 1.715 2.811-8.817c.58-1.807.605-2.074.673-2.831l4.128-1.93c-.2.371-.353.635-.532 1.038-.277.618-.415 1.088-.546 1.51l-1.585 5.091.031-.014 5.149-8.801 4.846-2.266-2.397 7.516.037-.017 4.41-6.326z" fill="#FEFEFE"/><path d="M89.393 15.479c-.054-.518.478-1.62 1.774-2.813l.265-.243c.758-.696 2.773-2.544 2.987-2.763l.111-.154-.145.058c-.097.059-.929.721-1.462 1.241l-.278.271.113-.327c.907-2.62 4.518-6.191 6.1-6.779l.198-.074-.112.201c-.277.498-1.082 2.136-1.333 3.047-.143.517-.11 1.033.095 1.492.151.338.459.545.758.746.216.145.441.296.606.496.424.517.213 1.499-.513 2.388-1.184 1.445-3.584 2.413-4.409 2.663l-.279.085.23-.255c1.679-1.852 1.867-2.796 1.83-3.194-.035-.371-.271-.537-.491-.536-.485.014-1.669.894-2.519 2.296-1.068 1.762.355 2.314.416 2.337l.241.089-.322.133c-.911.376-1.687.576-2.308.593-1.338.038-1.526-.757-1.552-1.001" fill="#FEFEFE"/><path d="M70.149 30.485c-.829.386-1.388 1.059-2.076 2.051l-.02.027c-.193.281-5.135 7.768-6.013 9.098l2.33-1.08 1.426-2.094 3.409-1.582-.133-1.936-1.427.663.135-.206c.477-.73 1.057-1.625 1.177-1.813.214-.334.258-.397.39-.458.093-.043.382-.039.414.195.021.281.298 4.093.359 4.585l1.971-.915c-.084-.885-.472-5.65-.494-5.806-.087-.65-.645-1.088-1.448-.73" fill="#FEFEFE"/><path d="M92.613 20.569l-6.539 3.048-3.261 8.456 1.969-.913 2.268-5.819 4.045-1.882c.205-.095.195.244.048.611-.175.44-.602.977-.773 1.056l-3.349 1.557-.962 2.462 3.827-1.776c1.781-.885 2.56-2.626 3.231-4.292.836-2.078.392-2.925-.503-2.508" fill="#FEFEFE"/><path d="M83.432 24.788c-.76.354-1.54 1.107-2.318 2.233-.356.515-2.395 3.659-3.247 4.974l-.143.222-.004-.153c-.017-.707-.078-3.061-.119-3.406-.086-.723-.514-.913-1.269-.56l-1.901.886-2.034 5.556.154 2.269.761-.351 1.987-5.431.027.278.007.087c.046.703.196 3.868.197 3.898l.004.143 2.375-1.098.154-.218c.03-.046 3.107-4.714 3.809-5.766l.09-.133.291-.427-2.094 5.506 1.914-.884 3.272-8.515-1.914.892z" fill="#FEFEFE"/><path d="M100.736 11.708l.065.069-.068.067h-.095v-.137h.098zm.053.227c.077-.02.11-.089.11-.158 0-.083-.054-.168-.164-.168h-.198v.509h.1v-.176h.032l.127.176h.122l-.13-.183zm-.079.346c.232 0 .415-.187.415-.418 0-.232-.183-.422-.415-.422-.231 0-.414.189-.414.422 0 .231.183.418.414.418zm0-.928c.281 0 .505.228.505.51 0 .28-.224.507-.505.507s-.502-.227-.502-.507c0-.282.221-.51.502-.51z" fill="#FEFEFE"/><path d="M95.669 29.135l.065.07-.068.067h-.095v-.137h.098zm.053.228c.077-.02.11-.089.11-.158 0-.084-.054-.168-.164-.168h-.198v.509h.1v-.175h.032l.127.175h.122l-.13-.183zm-.079.346c.232 0 .415-.187.415-.418 0-.232-.183-.422-.415-.422-.231 0-.414.189-.414.422 0 .231.183.418.414.418zm0-.928c.281 0 .505.228.505.51 0 .28-.224.507-.505.507s-.502-.227-.502-.507c0-.282.221-.51.502-.51z" fill="#FEFEFE"/><path d="M85.546 18.884l.065.069-.068.068h-.095v-.137h.098zm.053.228c.077-.02.11-.089.11-.158 0-.083-.054-.168-.164-.168h-.198v.509h.099v-.176h.033l.127.176h.122l-.13-.183zm-.079.346c.232 0 .415-.188.415-.418 0-.232-.183-.421-.415-.421-.231 0-.414.189-.414.421 0 .231.183.418.414.418zm0-.928c.28 0 .505.228.505.51 0 .28-.224.507-.505.507s-.502-.227-.502-.507c0-.282.221-.51.502-.51z" fill="#FEFEFE"/><path fill="#FEFEFE" d="M242.041 90.571l11.533-23.089h-13.385l-16.085 32.204h35.002l4.553-9.114z"/><path fill="#FEFEFE" d="M208.801 90.571l1.214-2.43h17.096l4.553-9.114h-17.097l1.214-2.43h17.096l4.553-9.115h-30.482l-16.085 32.204h30.481l4.553-9.114z"/><path fill="#FEFEFE" d="M141.667 79.026l1.214-2.43h17.097l4.553-9.114h-30.482l-16.085 32.204h13.385l5.767-11.544h17.096l4.553-9.114z"/><path d="M204.128 67.481h-13.385l-8.042 16.102c-2.268 4.543-4.275 6.987-8.478 6.987-4.204 0-3.769-2.444-1.498-6.987l8.042-16.102h-13.385l-8.042 16.102c-4.911 9.833-1.315 16.102 9.797 16.102h4.408c12.862 0 18.013-7.035 22.541-16.102l8.042-16.102z" fill="#FEFEFE"/><path fill="#FEFEFE" d="M126.076 63.372h13.385l4.495-32.205h-19.788l-27.344 32.205h15.924l15.951-18.786z"/><path fill="#FEFEFE" d="M152.907 63.37l5.937-11.887 1.894 11.889 4.851-.002 12.926-12.388-6.188 12.388h13.385l16.085-32.204h-15.289l-17.706 16.943-2.35-16.943h-10.846l-16.085 32.204z"/><path fill="#FEFEFE" d="M218.975 63.37l4.553-9.114h-17.097l1.214-2.43h17.096l4.553-9.114h-17.097l1.214-2.43h17.096l4.552-9.114h-30.481l-16.085 32.204z"/><path d="M85.079 44.214l-5.521 6.503h10.185l-1.764 3.552-5.057.001c-5.77.003-8.956-1.095-6.012-6.996 2.944-5.899 7.23-7.005 12.999-7.005l18.42-.005 4.532-9.082-19.039.005-29.3 13.42-1.454 2.914c-5.019 10.057-.257 15.869 9.705 15.865l24.021-.006 9.564-19.165h-21.277z" fill="#FEFEFE"/><g transform="translate(36) translate(224.759 98.605)"><mask id="b"><use xlink:href="#a"/></mask><path d="M.904.484c.05 0 .079.04.079.084 0 .041-.029.082-.083.082h-.115v-.166h.119zm.064.276c.094-.025.134-.108.134-.191 0-.101-.065-.203-.198-.203h-.24v.616h.121v-.213h.04l.154.213h.147l-.157-.222zm-.095.419c.282 0 .503-.227.503-.506 0-.281-.222-.511-.503-.511-.279 0-.502.229-.502.511 0 .279.222.506.502.506zm0-1.124c.34 0 .611.276.611.618 0 .339-.271.614-.611.614-.34 0-.607-.275-.607-.614 0-.341.267-.618.607-.618z" fill="#FEFEFE" mask="url(#b)"/></g></g></svg>